<?xml version="1.0" encoding="UTF-8" standalone="no"?>
<!DOCTYPE svg PUBLIC "-//W3C//DTD SVG 1.1//EN"
 "http://www.w3.org/Graphics/SVG/1.1/DTD/svg11.dtd">
<!-- Generated by graphviz version 14.1.3 (20260303.0454)
 -->
<!-- Title: orderProcessing Pages: 1 -->
<svg width="419pt" height="211pt"
 viewBox="0.00 0.00 419.00 211.00" xmlns="http://www.w3.org/2000/svg" xmlns:xlink="http://www.w3.org/1999/xlink">
<g id="graph0" class="graph" transform="scale(1 1) rotate(0) translate(4 206.5)">
<title>orderProcessing</title>
<polygon fill="white" stroke="none" points="-4,4 -4,-206.5 414.62,-206.5 414.62,4 -4,4"/>
<!-- order -->
<g id="node1" class="node">
<title>order</title>
<path fill="none" stroke="#3d6699" d="M209.38,-202.5C209.38,-202.5 179.38,-202.5 179.38,-202.5 173.38,-202.5 167.38,-196.5 167.38,-190.5 167.38,-190.5 167.38,-178.5 167.38,-178.5 167.38,-172.5 173.38,-166.5 179.38,-166.5 179.38,-166.5 209.38,-166.5 209.38,-166.5 215.38,-166.5 221.38,-172.5 221.38,-178.5 221.38,-178.5 221.38,-190.5 221.38,-190.5 221.38,-196.5 215.38,-202.5 209.38,-202.5"/>
<text xml:space="preserve" text-anchor="middle" x="194.38" y="-179.82" font-family="system-ui, sans-serif" font-size="14.00" fill="#3d6699">order</text>
</g>
<!-- chargeCard -->
<g id="node2" class="node">
<title>chargeCard</title>
<path fill="none" stroke="#3d6699" d="M88.75,-119.25C88.75,-119.25 24,-119.25 24,-119.25 18,-119.25 12,-113.25 12,-107.25 12,-107.25 12,-95.25 12,-95.25 12,-89.25 18,-83.25 24,-83.25 24,-83.25 88.75,-83.25 88.75,-83.25 94.75,-83.25 100.75,-89.25 100.75,-95.25 100.75,-95.25 100.75,-107.25 100.75,-107.25 100.75,-113.25 94.75,-119.25 88.75,-119.25"/>
<text xml:space="preserve" text-anchor="middle" x="56.38" y="-96.58" font-family="system-ui, sans-serif" font-size="14.00" fill="#3d6699">chargeCard</text>
</g>
<!-- order&#45;&gt;chargeCard -->
<g id="edge1" class="edge">
<title>order&#45;&gt;chargeCard</title>
<path fill="none" stroke="#3d6699" d="M167.11,-167.45C146.72,-155.44 118.54,-138.85 95.71,-125.41"/>
<polygon fill="#3d6699" stroke="#3d6699" points="97.67,-122.5 87.28,-120.44 94.12,-128.53 97.67,-122.5"/>
<text xml:space="preserve" text-anchor="middle" x="144.89" y="-139.95" font-family="system-ui, sans-serif" font-size="9.00" fill="#3d6699">order</text>
</g>
<!-- removeFromInventory -->
<g id="node3" class="node">
<title>removeFromInventory</title>
<path fill="none" stroke="#3d6699" d="M258.25,-119.25C258.25,-119.25 130.5,-119.25 130.5,-119.25 124.5,-119.25 118.5,-113.25 118.5,-107.25 118.5,-107.25 118.5,-95.25 118.5,-95.25 118.5,-89.25 124.5,-83.25 130.5,-83.25 130.5,-83.25 258.25,-83.25 258.25,-83.25 264.25,-83.25 270.25,-89.25 270.25,-95.25 270.25,-95.25 270.25,-107.25 270.25,-107.25 270.25,-113.25 264.25,-119.25 258.25,-119.25"/>
<text xml:space="preserve" text-anchor="middle" x="194.38" y="-96.58" font-family="system-ui, sans-serif" font-size="14.00" fill="#3d6699">removeFromInventory</text>
</g>
<!-- order&#45;&gt;removeFromInventory -->
<g id="edge2" class="edge">
<title>order&#45;&gt;removeFromInventory</title>
<path fill="none" stroke="#3d6699" d="M194.38,-166.27C194.38,-156 194.38,-142.7 194.38,-130.89"/>
<polygon fill="#3d6699" stroke="#3d6699" points="197.88,-131.25 194.38,-121.25 190.88,-131.25 197.88,-131.25"/>
<text xml:space="preserve" text-anchor="middle" x="205.62" y="-139.95" font-family="system-ui, sans-serif" font-size="9.00" fill="#3d6699">order</text>
</g>
<!-- prepareShipment -->
<g id="node4" class="node">
<title>prepareShipment</title>
<path fill="none" stroke="#3d6699" d="M398.62,-119.25C398.62,-119.25 300.12,-119.25 300.12,-119.25 294.12,-119.25 288.12,-113.25 288.12,-107.25 288.12,-107.25 288.12,-95.25 288.12,-95.25 288.12,-89.25 294.12,-83.25 300.12,-83.25 300.12,-83.25 398.62,-83.25 398.62,-83.25 404.62,-83.25 410.62,-89.25 410.62,-95.25 410.62,-95.25 410.62,-107.25 410.62,-107.25 410.62,-113.25 404.62,-119.25 398.62,-119.25"/>
<text xml:space="preserve" text-anchor="middle" x="349.38" y="-96.58" font-family="system-ui, sans-serif" font-size="14.00" fill="#3d6699">prepareShipment</text>
</g>
<!-- order&#45;&gt;prepareShipment -->
<g id="edge3" class="edge">
<title>order&#45;&gt;prepareShipment</title>
<path fill="none" stroke="#3d6699" d="M221.73,-169.16C245.08,-156.92 279.07,-139.1 306.11,-124.93"/>
<polygon fill="#3d6699" stroke="#3d6699" points="307.52,-128.14 314.75,-120.4 304.27,-121.94 307.52,-128.14"/>
<text xml:space="preserve" text-anchor="middle" x="292.41" y="-139.95" font-family="system-ui, sans-serif" font-size="9.00" fill="#3d6699">order</text>
</g>
<!-- notifyCustomer1 -->
<g id="node5" class="node">
<title>notifyCustomer1</title>
<path fill="none" stroke="#3d6699" d="M100.75,-36C100.75,-36 12,-36 12,-36 6,-36 0,-30 0,-24 0,-24 0,-12 0,-12 0,-6 6,0 12,0 12,0 100.75,0 100.75,0 106.75,0 112.75,-6 112.75,-12 112.75,-12 112.75,-24 112.75,-24 112.75,-30 106.75,-36 100.75,-36"/>
<text xml:space="preserve" text-anchor="middle" x="56.38" y="-13.32" font-family="system-ui, sans-serif" font-size="14.00" fill="#3d6699">notifyCustomer</text>
</g>
<!-- chargeCard&#45;&gt;notifyCustomer1 -->
<g id="edge4" class="edge">
<title>chargeCard&#45;&gt;notifyCustomer1</title>
<path fill="none" stroke="#3d6699" d="M56.38,-83.02C56.38,-72.75 56.38,-59.45 56.38,-47.64"/>
<polygon fill="#3d6699" stroke="#3d6699" points="59.88,-48 56.38,-38 52.88,-48 59.88,-48"/>
<text xml:space="preserve" text-anchor="middle" x="62.38" y="-56.7" font-family="system-ui, sans-serif" font-size="9.00" fill="#3d6699">bill</text>
</g>
<!-- notifyCustomer2 -->
<g id="node6" class="node">
<title>notifyCustomer2</title>
<path fill="none" stroke="#3d6699" d="M393.75,-36C393.75,-36 305,-36 305,-36 299,-36 293,-30 293,-24 293,-24 293,-12 293,-12 293,-6 299,0 305,0 305,0 393.75,0 393.75,0 399.75,0 405.75,-6 405.75,-12 405.75,-12 405.75,-24 405.75,-24 405.75,-30 399.75,-36 393.75,-36"/>
<text xml:space="preserve" text-anchor="middle" x="349.38" y="-13.32" font-family="system-ui, sans-serif" font-size="14.00" fill="#3d6699">notifyCustomer</text>
</g>
<!-- prepareShipment&#45;&gt;notifyCustomer2 -->
<g id="edge5" class="edge">
<title>prepareShipment&#45;&gt;notifyCustomer2</title>
<path fill="none" stroke="#3d6699" d="M349.38,-83.02C349.38,-72.75 349.38,-59.45 349.38,-47.64"/>
<polygon fill="#3d6699" stroke="#3d6699" points="352.88,-48 349.38,-38 345.88,-48 352.88,-48"/>
<text xml:space="preserve" text-anchor="middle" x="363.62" y="-56.7" font-family="system-ui, sans-serif" font-size="9.00" fill="#3d6699">waybill</text>
</g>
</g>
</svg>
